<?xml version="1.0" encoding="utf-8"?>
<!-- Generator: Adobe Illustrator 16.0.0, SVG Export Plug-In . SVG Version: 6.00 Build 0)  -->
<!DOCTYPE svg PUBLIC "-//W3C//DTD SVG 1.1//EN" "http://www.w3.org/Graphics/SVG/1.1/DTD/svg11.dtd">
<svg version="1.1" id="Layer_1" xmlns="http://www.w3.org/2000/svg" xmlns:xlink="http://www.w3.org/1999/xlink" x="0px" y="0px"
	 width="75px" height="75px" viewBox="0 0 595.28 841.89" style="enable-background:new 0 0 595.28 841.89;"
	 xml:space="preserve">
<style type="text/css">
	<![CDATA[
		.st0{fill:none;stroke:#054E66;stroke-miterlimit:10;}
		.st1{fill:#FDFEFF;}
		.st2{fill:#FFFFFF;}
		#gear1,#gear2,#gear3{
		transform-origin:50% 50%;
    -webkit-animation-name: spin;
    -webkit-animation-duration: 4000ms;
    -webkit-animation-iteration-count: infinite;
    -webkit-animation-timing-function: linear;
    -moz-animation-name: spin;
    -moz-animation-duration: 4000ms;
    -moz-animation-iteration-count: infinite;
    -moz-animation-timing-function: linear;
    -ms-animation-name: spin;
    -ms-animation-duration: 4000ms;
    -ms-animation-iteration-count: infinite;
    -ms-animation-timing-function: linear;

    animation-name: spin;
    animation-duration: 4000ms;
    animation-iteration-count: infinite;
    animation-timing-function: linear;
}
@-ms-keyframes spin {
    from { -ms-transform: rotate(0deg); }
    to { -ms-transform: rotate(360deg); }
}
@-moz-keyframes spin {
    from { -moz-transform: rotate(0deg); }
    to { -moz-transform: rotate(360deg); }
}
@-webkit-keyframes spin {
    from { -webkit-transform: rotate(0deg); }
    to { -webkit-transform: rotate(360deg); }
}
@keyframes spin {
    from {
        transform:rotate(0deg);
    }
    to {
        transform:rotate(360deg);
    }
}
	]]>
</style>
<g>
	<g id="gear1">
		<path class="st1" d="M507.094,313.733c1.572-5.271,7.359-9.583,12.859-9.583h21.315c5.5,0,10-4.5,9.999-10l-0.002-21.852
			c-0.001-5.5-4.501-10-10.001-10h-21.176c-5.5,0-11.257-4.321-12.794-9.602l-12.439-30.491c-2.649-4.82-1.636-11.945,2.254-15.834
			l15.08-15.082c3.89-3.889,3.89-10.253,0-14.142l-15.447-15.447c-3.89-3.889-10.253-3.889-14.143,0l-14.978,14.978
			c-3.89,3.889-11,4.877-15.802,2.195l-30.411-12.654c-5.27-1.573-9.582-7.359-9.582-12.859v-21.311c0-5.5-4.5-10-10-10h-21.848
			c-5.5,0-10,4.5-10,10v21.176c0,5.5-4.321,11.257-9.602,12.794l-30.491,12.445c-4.819,2.649-11.944,1.635-15.833-2.254
			l-15.082-15.084c-3.889-3.89-10.252-3.89-14.142-0.001l-15.451,15.452c-3.889,3.889-3.889,10.253,0,14.142l14.979,14.979
			c3.889,3.889,4.877,11,2.195,15.802l-12.65,30.407c-1.573,5.271-7.359,9.583-12.859,9.583h-21.315c-5.5,0-10,4.5-10,10
			l0.002,21.847c0,5.5,4.5,10,10,10h21.177c5.5,0,11.257,4.321,12.793,9.602l12.442,30.49c2.649,4.82,1.635,11.946-2.254,15.835
			l-15.083,15.085c-3.889,3.889-3.889,10.253,0.001,14.142l15.45,15.448c3.89,3.889,10.253,3.889,14.143-0.001l14.976-14.978
			c3.889-3.89,10.999-4.877,15.801-2.195l30.411,12.651c5.271,1.572,9.583,7.358,9.583,12.858v21.316c0,5.5,4.5,10,10,10h21.849
			c5.5,0,10-4.5,10-10v-21.181c0-5.5,4.321-11.257,9.602-12.794l30.487-12.44c4.819-2.649,11.944-1.635,15.834,2.254l15.084,15.085
			c3.89,3.889,10.253,3.889,14.143,0l15.451-15.451c3.89-3.889,3.89-10.253,0-14.142l-14.979-14.979
			c-3.89-3.889-4.877-11-2.195-15.802L507.094,313.733z M390.502,350.675c-37.417,0-67.856-30.443-67.856-67.855
			c0-37.416,30.439-67.855,67.856-67.855c37.409,0,67.849,30.439,67.849,67.855C458.351,320.231,427.911,350.675,390.502,350.675z"
			/>
		<path class="st0" d="M507.094,313.733c1.572-5.271,7.359-9.583,12.859-9.583h21.315c5.5,0,10-4.5,9.999-10l-0.002-21.852
			c-0.001-5.5-4.501-10-10.001-10h-21.176c-5.5,0-11.257-4.321-12.794-9.602l-12.439-30.491c-2.649-4.82-1.636-11.945,2.254-15.834
			l15.08-15.082c3.89-3.889,3.89-10.253,0-14.142l-15.447-15.447c-3.89-3.889-10.253-3.889-14.143,0l-14.978,14.978
			c-3.89,3.889-11,4.877-15.802,2.195l-30.411-12.654c-5.27-1.573-9.582-7.359-9.582-12.859v-21.311c0-5.5-4.5-10-10-10h-21.848
			c-5.5,0-10,4.5-10,10v21.176c0,5.5-4.321,11.257-9.602,12.794l-30.491,12.445c-4.819,2.649-11.944,1.635-15.833-2.254
			l-15.082-15.084c-3.889-3.89-10.252-3.89-14.142-0.001l-15.451,15.452c-3.889,3.889-3.889,10.253,0,14.142l14.979,14.979
			c3.889,3.889,4.877,11,2.195,15.802l-12.65,30.407c-1.573,5.271-7.359,9.583-12.859,9.583h-21.315c-5.5,0-10,4.5-10,10
			l0.002,21.847c0,5.5,4.5,10,10,10h21.177c5.5,0,11.257,4.321,12.793,9.602l12.442,30.49c2.649,4.82,1.635,11.946-2.254,15.835
			l-15.083,15.085c-3.889,3.889-3.889,10.253,0.001,14.142l15.45,15.448c3.89,3.889,10.253,3.889,14.143-0.001l14.976-14.978
			c3.889-3.89,10.999-4.877,15.801-2.195l30.411,12.651c5.271,1.572,9.583,7.358,9.583,12.858v21.316c0,5.5,4.5,10,10,10h21.849
			c5.5,0,10-4.5,10-10v-21.181c0-5.5,4.321-11.257,9.602-12.794l30.487-12.44c4.819-2.649,11.944-1.635,15.834,2.254l15.084,15.085
			c3.89,3.889,10.253,3.889,14.143,0l15.451-15.451c3.89-3.889,3.89-10.253,0-14.142l-14.979-14.979
			c-3.89-3.889-4.877-11-2.195-15.802L507.094,313.733z M390.502,350.675c-37.417,0-67.856-30.443-67.856-67.855
			c0-37.416,30.439-67.855,67.856-67.855c37.409,0,67.849,30.439,67.849,67.855C458.351,320.231,427.911,350.675,390.502,350.675z"
			/>
	</g>
</g>
<g>
	<g id="gear2">
		<path class="st2" d="M264.157,467.073c1.572-5.271,7.358-9.583,12.858-9.583h15.49c5.5,0,10-4.5,10-10v-15.947c0-5.5-4.5-10-10-10
			h-15.374c-5.5,0-11.257-4.321-12.793-9.602l-9.614-23.602c-2.65-4.819-1.636-11.945,2.253-15.833l10.965-10.965
			c3.889-3.889,3.889-10.252,0-14.141l-11.277-11.275c-3.89-3.889-10.254-3.888-14.143,0l-10.873,10.874
			c-3.889,3.889-11,4.876-15.802,2.194l-23.537-9.78c-5.271-1.572-9.583-7.358-9.583-12.858v-15.49c0-5.5-4.5-10-10-10h-15.951
			c-5.5,0-10,4.5-10,10v15.375c0,5.5-4.321,11.257-9.602,12.794l-23.601,9.614c-4.82,2.649-11.945,1.635-15.834-2.255L86.777,335.63
			c-3.889-3.89-10.252-3.89-14.142,0l-11.278,11.278c-3.889,3.889-3.889,10.253,0,14.143l10.873,10.873
			c3.889,3.889,4.877,11,2.195,15.802l-9.775,23.538c-1.572,5.271-7.359,9.583-12.859,9.583h-15.49c-5.5,0-10,4.5-10,10l0,15.95
			c0,5.5,4.5,10,10,10h15.373c5.5,0,11.257,4.32,12.794,9.602l9.613,23.602c2.649,4.82,1.634,11.945-2.255,15.834l-10.962,10.961
			c-3.889,3.89-3.889,10.253,0,14.143l11.278,11.276c3.889,3.89,10.253,3.89,14.143,0l10.873-10.871
			c3.889-3.89,11-4.877,15.802-2.195l23.537,9.775c5.271,1.572,9.583,7.358,9.583,12.858v15.488c0,5.5,4.5,10,10,10h15.951
			c5.5,0,10-4.5,10-10v-15.369c0-5.5,4.321-11.258,9.602-12.795l23.602-9.616c4.82-2.649,11.945-1.636,15.834,2.254l10.961,10.963
			c3.889,3.89,10.253,3.89,14.142,0.001l11.277-11.277c3.889-3.889,3.889-10.252,0-14.142l-10.873-10.873
			c-3.889-3.89-4.877-11-2.195-15.802L264.157,467.073z M164.402,497.457c-32.139,0-58.286-26.148-58.286-58.287
			c0-32.144,26.147-58.29,58.286-58.29c32.142,0,58.289,26.146,58.289,58.29C222.69,471.309,196.544,497.457,164.402,497.457z"/>
		<path class="st0" d="M264.157,467.073c1.572-5.271,7.358-9.583,12.858-9.583h15.49c5.5,0,10-4.5,10-10v-15.947c0-5.5-4.5-10-10-10
			h-15.374c-5.5,0-11.257-4.321-12.793-9.602l-9.614-23.602c-2.65-4.819-1.636-11.945,2.253-15.833l10.965-10.965
			c3.889-3.889,3.889-10.252,0-14.141l-11.277-11.275c-3.89-3.889-10.254-3.888-14.143,0l-10.873,10.874
			c-3.889,3.889-11,4.876-15.802,2.194l-23.537-9.78c-5.271-1.572-9.583-7.358-9.583-12.858v-15.49c0-5.5-4.5-10-10-10h-15.951
			c-5.5,0-10,4.5-10,10v15.375c0,5.5-4.321,11.257-9.602,12.794l-23.601,9.614c-4.82,2.649-11.945,1.635-15.834-2.255L86.777,335.63
			c-3.889-3.89-10.252-3.89-14.142,0l-11.278,11.278c-3.889,3.889-3.889,10.253,0,14.143l10.873,10.873
			c3.889,3.889,4.877,11,2.195,15.802l-9.775,23.538c-1.572,5.271-7.359,9.583-12.859,9.583h-15.49c-5.5,0-10,4.5-10,10l0,15.95
			c0,5.5,4.5,10,10,10h15.373c5.5,0,11.257,4.32,12.794,9.602l9.613,23.602c2.649,4.82,1.634,11.945-2.255,15.834l-10.962,10.961
			c-3.889,3.89-3.889,10.253,0,14.143l11.278,11.276c3.889,3.89,10.253,3.89,14.143,0l10.873-10.871
			c3.889-3.89,11-4.877,15.802-2.195l23.537,9.775c5.271,1.572,9.583,7.358,9.583,12.858v15.488c0,5.5,4.5,10,10,10h15.951
			c5.5,0,10-4.5,10-10v-15.369c0-5.5,4.321-11.258,9.602-12.795l23.602-9.616c4.82-2.649,11.945-1.636,15.834,2.254l10.961,10.963
			c3.889,3.89,10.253,3.89,14.142,0.001l11.277-11.277c3.889-3.889,3.889-10.252,0-14.142l-10.873-10.873
			c-3.889-3.89-4.877-11-2.195-15.802L264.157,467.073z M164.402,497.457c-32.139,0-58.286-26.148-58.286-58.287
			c0-32.144,26.147-58.29,58.286-58.29c32.142,0,58.289,26.146,58.289,58.29C222.69,471.309,196.544,497.457,164.402,497.457z"/>
	</g>
</g>
<g>
	<g id="gear3">
		<path class="st1" d="M447.63,613.289c3.778-3.997,10.866-5.201,15.753-2.676l10.752,5.559c4.887,2.525,10.951,0.595,13.478-4.291
			l6.308-12.199c2.526-4.886,0.597-10.95-4.289-13.477l-10.658-5.512c-4.886-2.526-7.972-9.001-6.858-14.387l2.328-22.352
			c-0.055-5.5,4.163-11.443,9.372-13.208l12.047-4.079c5.209-1.765,8.186-7.521,6.614-12.791l-3.753-12.59
			c-1.571-5.271-7.119-8.139-12.328-6.374l-11.94,4.046c-5.209,1.765-11.893-0.584-14.852-5.22l-13.573-16.55
			c-3.921-3.857-5.061-11.011-2.534-15.896l6.114-11.82c2.526-4.885,0.597-10.948-4.289-13.474l-11.124-5.751
			c-4.886-2.525-10.949-0.595-13.476,4.291l-6.062,11.726c-2.526,4.886-9.017,8.059-14.424,7.052l-21.32-1.657
			c-5.495,0.226-11.277-3.902-12.849-9.173l-3.636-12.193c-1.571-5.271-7.119-8.14-12.329-6.376l-12.441,4.214
			c-5.21,1.765-8.186,7.521-6.613,12.791l3.603,12.082c1.572,5.271-0.856,12.123-5.396,15.228l-16.988,14.703
			c-3.777,3.998-10.864,5.202-15.75,2.676l-10.753-5.561c-4.885-2.526-10.949-0.597-13.476,4.289l-6.312,12.205
			c-2.527,4.886-0.597,10.95,4.289,13.476l10.657,5.512c4.886,2.525,7.972,9,6.859,14.386l-2.324,22.352
			c0.055,5.5-4.162,11.443-9.372,13.208l-12.053,4.082c-5.209,1.765-8.186,7.521-6.613,12.791l3.753,12.582
			c1.572,5.271,7.121,8.14,12.33,6.376l11.937-4.043c5.209-1.764,11.895,0.585,14.855,5.22l13.569,16.545
			c3.92,3.858,5.061,11.012,2.535,15.897l-6.111,11.822c-2.525,4.886-0.594,10.949,4.292,13.475l11.119,5.746
			c4.886,2.525,10.951,0.595,13.478-4.291l6.06-11.719c2.526-4.886,9.018-8.06,14.425-7.053l21.324,1.654
			c5.495-0.226,11.276,3.902,12.848,9.173l3.636,12.195c1.571,5.271,7.118,8.14,12.328,6.375l12.441-4.215
			c5.21-1.765,8.186-7.521,6.614-12.791l-3.604-12.084c-1.571-5.271,0.857-12.123,5.397-15.228L447.63,613.289z M354.824,596.707
			c-25.825-13.354-35.566-46.02-21.708-72.812c13.853-26.797,46.137-37.729,71.956-24.375c25.83,13.354,35.566,46.014,21.713,72.809
			C412.933,599.121,380.649,610.055,354.824,596.707z"/>
		<path class="st0" d="M447.63,613.289c3.778-3.997,10.866-5.201,15.753-2.676l10.752,5.559c4.887,2.525,10.951,0.595,13.478-4.291
			l6.308-12.199c2.526-4.886,0.597-10.95-4.289-13.477l-10.658-5.512c-4.886-2.526-7.972-9.001-6.858-14.387l2.328-22.352
			c-0.055-5.5,4.163-11.443,9.372-13.208l12.047-4.079c5.209-1.765,8.186-7.521,6.614-12.791l-3.753-12.59
			c-1.571-5.271-7.119-8.139-12.328-6.374l-11.94,4.046c-5.209,1.765-11.893-0.584-14.852-5.22l-13.573-16.55
			c-3.921-3.857-5.061-11.011-2.534-15.896l6.114-11.82c2.526-4.885,0.597-10.948-4.289-13.474l-11.124-5.751
			c-4.886-2.525-10.949-0.595-13.476,4.291l-6.062,11.726c-2.526,4.886-9.017,8.059-14.424,7.052l-21.32-1.657
			c-5.495,0.226-11.277-3.902-12.849-9.173l-3.636-12.193c-1.571-5.271-7.119-8.14-12.329-6.376l-12.441,4.214
			c-5.21,1.765-8.186,7.521-6.613,12.791l3.603,12.082c1.572,5.271-0.856,12.123-5.396,15.228l-16.988,14.703
			c-3.777,3.998-10.864,5.202-15.75,2.676l-10.753-5.561c-4.885-2.526-10.949-0.597-13.476,4.289l-6.312,12.205
			c-2.527,4.886-0.597,10.95,4.289,13.476l10.657,5.512c4.886,2.525,7.972,9,6.859,14.386l-2.324,22.352
			c0.055,5.5-4.162,11.443-9.372,13.208l-12.053,4.082c-5.209,1.765-8.186,7.521-6.613,12.791l3.753,12.582
			c1.572,5.271,7.121,8.14,12.33,6.376l11.937-4.043c5.209-1.764,11.895,0.585,14.855,5.22l13.569,16.545
			c3.92,3.858,5.061,11.012,2.535,15.897l-6.111,11.822c-2.525,4.886-0.594,10.949,4.292,13.475l11.119,5.746
			c4.886,2.525,10.951,0.595,13.478-4.291l6.06-11.719c2.526-4.886,9.018-8.06,14.425-7.053l21.324,1.654
			c5.495-0.226,11.276,3.902,12.848,9.173l3.636,12.195c1.571,5.271,7.118,8.14,12.328,6.375l12.441-4.215
			c5.21-1.765,8.186-7.521,6.614-12.791l-3.604-12.084c-1.571-5.271,0.857-12.123,5.397-15.228L447.63,613.289z M354.824,596.707
			c-25.825-13.354-35.566-46.02-21.708-72.812c13.853-26.797,46.137-37.729,71.956-24.375c25.83,13.354,35.566,46.014,21.713,72.809
			C412.933,599.121,380.649,610.055,354.824,596.707z"/>
	</g>
</g>
</svg>
