<?xml version="1.0" encoding="utf-8"?>
<!-- Generator: Adobe Illustrator 16.0.0, SVG Export Plug-In . SVG Version: 6.00 Build 0)  -->
<!DOCTYPE svg PUBLIC "-//W3C//DTD SVG 1.1//EN" "http://www.w3.org/Graphics/SVG/1.1/DTD/svg11.dtd">
<svg version="1.1" id="Layer_1" xmlns="http://www.w3.org/2000/svg" xmlns:xlink="http://www.w3.org/1999/xlink" x="0px" y="0px"
	 width="1920px" height="2961px" viewBox="0 0 1920 2961" style="enable-background:new 0 0 1920 2961;" xml:space="preserve">
<style type="text/css">
<![CDATA[
	.st0{fill:#79AFDE;}
]]>
</style>
<path class="st0" d="M1588.475,739.775c0,0,59.535,448.225-104.465,500.225s-58.01-90-317.01-26s-207,96-379,40
	s-416-194.242-484,28.879S176,1622,220,1746s-116,396,40,436s744-120,912-48s324-14.955,436,54.522S1784,2483,1784,2532.5
	s48,421.5-80,397.5l14,4c128,24,80-348,80-397.5s-64-274.5-176-343.978S1354,2210,1186,2138s-756,88-912,48s4-312-40-436
	s16-240,84-463.121S630,1202,802,1258s120,24,379-40s153.01,78,317.01,26s104.465-500.225,104.465-500.225"/>
</svg>
